<?xml version="1.0" encoding="UTF-8"?>
<!-- Created with EazyDraw for Mac ( https://www.eazydraw.com/ ) -->

<svg
    version="1.1"
    xmlns:dc="http://purl.org/dc/elements/1.1/"
    xmlns:cc="http://creativecommons.org/ns#"
    xmlns:rdf="http://www.w3.org/1999/02/22-rdf-syntax-ns#"
    xmlns:svg="http://www.w3.org/2000/svg"
    xmlns:xlink="http://www.w3.org/1999/xlink"
    xmlns="http://www.w3.org/2000/svg"
    width="612"
    height="792"
    viewBox="0, 0, 612, 792"
    preserveAspectRatio="none"
    id="svg2">
   <defs
       id="defs_FF406052">
      <linearGradient id="linearStops_9E91E202">
         <stop id="stop_9E91E202_0" offset="0" style="stop-color:#919191;stop-opacity:1;"/>
         <stop id="stop_9E91E202_1" offset="1" style="stop-color:#5E8E28;stop-opacity:1;"/>
      </linearGradient>
      <linearGradient id="linearGradient_9E91E202" x1="0.5" y1="0" x2="0.5" y2="1" gradientUnits="objectBoundingBox" xlink:href="#linearStops_9E91E202"/>
   </defs>
   <metadata
       id="metadata7">
      <rdf:RDF>
         <cc:Work
             rdf:about="">
            <dc:format>image/svg+xml</dc:format>
            <dc:type rdf:resource="http://purl.org/dc/dcmitype/StillImage"/>
            <dc:title></dc:title>
         </cc:Work>
      </rdf:RDF>
   </metadata>
   <g
       id="layer_Paper"
       style="fill:#000000;fill-opacity:1;stroke:#000000;stroke-opacity:1;fill-rule:nonzero;stroke-linecap:square;stroke-linejoin:miter;stroke-width:1;stroke-miterlimit:10">
      <g
          id="19F74932">
         <g
             id="CA45DE22">
            <path
                style="fill:#6ACCDF;stroke:none;fill-rule:evenodd"
                id="FE290551"
                d="M146.775105329,240.121446158 C102.032888666,326.963732366 128.85478741,429.846017783 206.683492933,469.915462284 C244.459715981,489.364228169 289.373408463,491.075312353 331.346579645,474.664771996"/>
            <path
                style="fill:none"
                id="AE290551"
                d="M501.897693497,406.838935899 C501.897693497,406.838935899 501.897693497,406.838935899 501.897693497,406.838935899 z"/>
            <path
                style="fill:url(#linearGradient_9E91E202);stroke:none;fill-rule:evenodd"
                id="9E91E202"
                d="M277.684893634,236.881846501 C277.67300443,258.392705508 282.837339235,264.197899565 302.011564239,261.552809247 C313.515945344,259.965776286 321.009707975,262.829218562 325.678790091,269.645255948 C329.383402871,275.053338003 331.150871012,282.140277882 332.5029236,294.03885414
C332.661885815,295.437782006 332.723453965,296.014881477 333.061761507,299.233169183 C334.663905828,314.474216857 336.070005347,320.476326086 340.318727741,324.720354477 C344.62530552,329.031696017 345.293502145,334.241169723 343.472550799,341.739874569
C343.081746449,343.34921272 342.64939529,344.839953846 341.856525271,347.402814411 C339.673121018,354.460415941 339.101746457,356.865059397 339.252349678,359.994157348 C339.457324206,364.252933302 341.662148157,367.309949847 346.396052703,369.267732639
C353.018181831,372.006421247 354.964740734,378.295128087 355.210883285,391.472351328 C355.225569323,392.258567268 355.233981038,392.870679296 355.251451244,394.309341259 C355.351333545,402.534594574 355.605254474,405.886982931 356.738690099,409.265716202
C358.268144615,413.824968397 361.306693508,416.204807581 366.335562204,416.20202809 C370.162148894,416.204143479 371.804815174,417.342125907 371.937283177,419.511557625 C372.054933057,421.438312579 371.060594926,424.11688388 369.036996218,427.800356361
C368.61290669,428.572308872 368.149483906,429.380298147 367.582719859,430.342525123 C363.204917065,437.774965428 363.432025533,437.365724377 363.110148265,438.93614484 C362.534308091,441.74563555 364.785295638,442.067668557 369.437031179,440.137843748
C376.021389476,437.406248653 379.437749596,437.508387323 383.259089898,439.359669381 C383.454019404,439.454104702 384.114285412,439.781587625 384.230060267,439.83810019 C384.61099613,440.024044388 384.907819899,440.160427496 385.199776091,440.280114827
C388.518068733,441.640447638 391.465911481,440.43097171 397.236465246,434.654035565 C411.376875855,420.529247908 422.693323784,403.592986725 430.331907433,385.122947031 C437.990621155,366.662043946 441.964429216,346.684361746 441.95338212,326.697110698
C441.964429216,306.710597332 437.990621155,286.732915132 430.331625135,268.271330519 C422.006687187,248.141690055 411.874323264,231.925021894 398.663866579,218.729160169 C385.164381871,205.214744109 367.172377542,193.696068481 347.704855092,185.644959706
C329.243952007,177.986245984 309.266269807,174.012437923 289.279018759,174.023485019 C269.292505393,174.012437922 249.314823193,177.986245984 230.85323858,185.645242004 C228.090614031,186.787769628 225.858327756,187.928946774 224.049053056,189.11127447
C220.108209723,191.686543015 218.422165922,194.020002693 216.485995942,198.641231048 C213.397647547,206.012465664 211.941910284,208.551176356 206.83735739,213.661375015 C203.309119112,217.185714707 203.4945472,219.092323371 207.325502905,218.038102742
C208.571116593,217.695328837 210.268882769,217.070707028 212.77066097,216.059146876 C214.016547525,215.555389512 218.974996141,213.498344485 219.999746332,213.079731593 C221.089828387,212.634430479 222.07628238,212.237844293 223.018116843,211.86743764
C229.248535993,209.417125196 233.647019592,208.082265858 236.578370782,207.935840518 C239.841613313,207.772836714 240.726870994,209.025670839 239.231677421,212.641038021 C235.699868373,221.154266552 245.176838178,228.734720749 261.517279488,234.29090632
C267.325690119,236.265920748 273.476448954,237.728583685 277.484726155,238.179395701 C279.555663891,238.412314624 276.284432461,232.853636286 281.294158098,237.879412755 C281.831603826,237.359126605 281.585578443,236.747757634 280.994950606,236.263010821
C280.601455128,235.940056727 279.958039942,235.575340325 279.050996467,235.156824453 C278.849015373,235.063629037 278.647034278,234.970433621 278.445053184,234.877238205 C278.258662352,235.281200393 278.07227152,235.685162583 277.885880689,236.089124771
C278.087861784,236.182320187 278.289842878,236.275515603 278.491823972,236.368711019 C279.304280039,236.743583633 279.861725067,237.059568318 280.148212745,237.294697752 C280.233419725,237.364629796 280.269067846,237.406205476 280.261331756,237.386981423
C280.202735898,237.241371692 280.24231537,237.040052178 280.365836843,236.920474501 C280.38067364,236.906111414 280.135823945,236.960447817 279.73385826,236.97384938 C279.21471689,236.991157589 278.501618529,236.9506813 277.6338963,236.853088347
C273.727815505,236.413770389 267.669315392,234.973046763 261.946943467,233.02728779 C246.312216322,227.711063843 237.386562353,220.571597064 240.464751154,213.151793885 C242.334845573,208.629920253 240.752806664,206.390987596 236.511785075,206.602832915
C233.386236559,206.758958699 228.895226652,208.121898079 222.529634498,210.625371648 C221.581902806,210.998097576 220.590164677,211.396808155 219.495019561,211.844177542 C218.464815403,212.265018392 213.509401195,214.320804575 212.270354953,214.821796151
C209.814401527,215.814827676 208.152622483,216.42620953 206.971385574,216.751267926 C206.341577324,216.924581558 205.873673841,217.006968304 205.59063023,217.000427178 C205.505696296,216.998464358 205.613679831,217.061936304 205.630578883,217.235695736
C205.610754962,217.031862219 206.315730943,216.068890059 207.781111168,214.605128791 C213.037020277,209.34340709 214.567182442,206.674904235 217.716988306,199.15698363 C219.558852275,194.760843785 221.09330983,192.637177229 224.779164783,190.228538895
C226.51345654,189.09521117 228.673012226,187.991214957 231.363994443,186.878315737 C249.66390944,179.286390617 269.467535565,175.347204462 289.279018759,175.35815441 C309.091239635,175.347204462 328.89486576,179.286390617 347.194099228,186.878033439
C366.507193842,194.865276527 384.351164921,206.289179667 397.720112802,219.672913946 C410.795612721,232.733968583 420.836162152,248.803689282 429.098551402,268.782086383 C436.690476521,287.082001379 440.629662677,306.885627504 440.618712729,326.697110698
C440.629662677,346.509331574 436.690476521,366.312957699 429.0988337,384.612191167 C421.527141445,402.920486891 410.309288363,419.709190459 396.292711469,433.710281788 C390.859951634,439.149049817 388.410692325,440.153961011 385.70603412,439.045187405
C385.445439635,438.938356795 385.172675422,438.813028452 384.81552079,438.638692459 C384.705538295,438.585007288 384.04286485,438.25633031 383.840991908,438.15853118 C379.676874849,436.141187894 375.862610044,436.027153096 368.925593786,438.905052314
C365.095247344,440.494114616 364.180073809,440.363187155 364.417636842,439.204130937 C364.691497038,437.867982976 364.56740485,438.091592504 368.732726282,431.019893676 C369.305707509,430.047111446 369.775394601,429.22820019 370.206764739,428.442995089
C372.348068709,424.545268621 373.407533573,421.691257401 373.269471574,419.430212665 C373.087863244,416.456008612 370.798223378,414.869825243 366.335562204,414.867358698 C361.903129896,414.869808128 359.357606562,412.8761143 358.00405858,408.841233534
C356.932944643,405.648279109 356.684000816,402.361600882 356.586022443,394.293135066 C356.568516542,392.851533576 356.560078979,392.237540635 356.545320095,391.447424857 C356.289648434,377.760061447 354.214836989,371.05701182 346.906127038,368.034376608
C342.644396859,366.271869162 340.765313615,363.666496264 340.58547608,359.929994086 C340.445560281,357.022949745 341.002297515,354.679907827 343.131571989,347.797274543 C343.932120423,345.209594387 344.370439983,343.698274296 344.769527374,342.054826455
C346.689017058,334.150339262 345.961857876,328.481174688 341.262481518,323.7766007 C337.32988091,319.848344266 335.953048406,313.971164898 334.389117418,299.09363706 C334.050330093,295.870785215 333.988628901,295.292438699 333.829059053,293.888163432
C332.453407587,281.781908094 330.64600063,274.534827287 326.779890047,268.890986888 C321.808815101,261.634093169 313.810455305,258.577839228 301.829173448,260.230660796 C283.545685105,262.752873714 279.008083519,257.652186258 279.019563026,236.882584182
C279.019685973,236.660139283 279.01980892,236.437694385 279.019931867,236.215249486 C278.57504207,236.215003593 278.130152273,236.214757699 277.685262476,236.214511805 C277.685139529,236.436956703 277.685016582,236.659401602 277.684893634,236.881846501
z"/>
            <path
                style="fill:none"
                id="DE290551"
                d="M212.289852991,512.83819626 C212.289852991,512.83819626 212.289852991,512.83819626 212.289852991,512.83819626 z"/>
            <g
                id="vectorGradient_CE290551">
               <g
                   id="gradientWithClip_CE290551">
                  <clipPath
                      id="gradientClip_CE290551_clip">
                     <path
                         d="M332.528262405,472.858935841 C330.230617031,469.958192019 330.465639939,468.632228852 330.465639939,461.213426296 C332.830985822,451.8998546 321.830775986,453.754933754 324.645281029,448.571260306 C325.596182852,442.567502482 327.13846492,437.332478461 327.334945263,436.344705076
C327.474280847,425.700858496 326.87176308,430.645491138 321.930301037,424.704028827 C321.266208306,422.66016156 324.868780743,419.536215342 323.177507442,412.061862837 C321.705490396,406.842484095 322.090079497,404.626655963 321.098830101,403.161357631
C315.777524597,398.548269035 310.234249501,398.145450556 309.226799412,397.278623852 C308.324876485,394.701803153 323.793462431,376.248715298 308.395224553,371.502775406 C305.525027991,367.569639869 293.634771533,368.891767934 299.849119179,359.856695136
C300.99998604,352.60703206 303.502007589,347.709985474 300.680590116,342.395639194 C285.809382037,375.44997376 299.542179366,335.704304913 296.107499966,336.15964874 C292.161344079,332.518471008 274.650119039,337.834693967 280.32374812,322.377733218
C284.203709043,311.363764752 274.751979312,315.926555609 272.424732654,311.984304943 C239.141603403,323.094321329 278.727459087,287.847311714 260.722741555,287.494114587 C253.881865381,287.359917658 249.248885163,288.143795419 248.32620909,285.831089576
C246.268988311,274.731319532 250.073405785,258.817967007 240.477658864,260.485318038 C229.276670461,258.732744305 198.318909274,275.11601366 207.467738913,260.982155385 C191.741716738,227.429597058 190.711859983,221.202940263 170.464912786,236.141535073
C169.993600981,237.053537772 165.098743776,239.901603455 164.228797624,239.883195856 C154.244666845,232.301485783 151.684902535,232.407220597 147.678610153,238.627800282 C145.285646167,243.218166335 153.705905506,244.632207009 152.031257828,249.361266166
C152.218435511,263.659771063 151.096863565,270.752619582 154.525670638,272.732242269 C158.025203551,277.969663393 154.867328863,288.762009206 159.684515061,294.676390633 C166.555345658,294.025409879 162.972800555,297.515805712 165.479537427,308.593988643
C165.336011078,319.557967791 170.741302828,317.777403129 180.244361173,324.215432806 C181.815453669,345.954699995 192.274567983,362.101102285 204.751885964,392.046617302 C206.876631209,400.815935423 204.894679484,405.352903511 212.3680633,404.131254635
C209.52992358,419.879480817 215.968143935,413.234513245 226.539255374,412.257488386 C228.146171296,409.981184477 231.185987358,422.577452594 234.828794473,423.822591484 C236.239873277,425.720590102 241.592710798,423.608477132 245.808080944,425.485533357
C250.933977998,430.611942949 246.255656253,452.392792706 264.087367972,443.398531707 C274.502536779,438.14515233 269.572179119,440.192224289 271.325014445,455.491067223 C273.807129142,461.328347952 273.683812188,461.898441999 280.225540436,461.727140816
C299.65602833,461.727140816 293.596424862,467.619665772 290.127701661,476.314089142 C289.176172378,481.448081732 292.250697671,479.241267301 298.333769425,479.639972888 C308.842811763,477.834189149 315.412980936,475.782017467 315.569386933,473.746291984
C328.331617562,475.631092572 333.569771224,474.35216902 332.528262405,472.858935841 z"
                         clip-rule="evenodd"/>
                  </clipPath>
                  <g
                      id="gradientVectors_CE290551"
                      clip-path="url(#gradientClip_CE290551_clip)"
                      style="fill:none;stroke-linecap:round;stroke-linejoin:bevel;stroke-width:2.954723934061">
                     <path id="gv_CE290551_0" d="M330.775176571,231.036206677 C380.935328867,299.020592703 380.935328867,409.245060813 330.775176571,477.229446839 C280.615024276,545.213832865 199.289348923,545.213832865 149.129196627,477.229446839 C98.969044332,409.245060813 98.969044332,299.020592703 149.129196627,231.036206677
C199.289348923,163.05182065 280.615024276,163.05182065 330.775176571,231.036206677" style="stroke:#929292"/>
                     <path id="gv_CE290551_1" d="M329.862382702,232.273358638 C379.518412864,299.574484503 379.518412864,408.691169013 329.862382702,475.992294878 C280.20635254,543.293420744 199.698020658,543.293420744 150.041990497,475.992294878 C100.385960335,408.691169013 100.385960335,299.574484503 150.041990497,232.273358638
C199.698020658,164.972232772 280.20635254,164.972232772 329.862382702,232.273358638" style="stroke:#929292"/>
                     <path id="gv_CE290551_2" d="M328.949588833,233.510510598 C378.101496861,300.128376302 378.101496861,408.137277213 328.949588833,474.755142918 C279.797680805,541.373008622 200.106692394,541.373008622 150.954784366,474.755142918 C101.802876337,408.137277213 101.802876337,300.128376302 150.954784366,233.510510598
C200.106692394,166.892644894 279.797680805,166.892644894 328.949588833,233.510510598" style="stroke:#929292"/>
                     <path id="gv_CE290551_3" d="M328.036794964,234.747662559 C376.684580858,300.682268102 376.684580858,407.583385414 328.036794964,473.517990957 C279.389009069,539.4525965 200.515364129,539.4525965 151.867578235,473.517990957 C103.21979234,407.583385414 103.21979234,300.682268102 151.867578235,234.747662559
C200.515364129,168.813057016 279.389009069,168.813057016 328.036794964,234.747662559" style="stroke:#929292"/>
                     <path id="gv_CE290551_4" d="M327.124001095,235.984814519 C375.267664856,301.236159902 375.267664856,407.029493614 327.124001095,472.280838997 C278.980337334,537.532184379 200.924035865,537.532184379 152.780372104,472.280838997 C104.636708343,407.029493614 104.636708343,301.236159902 152.780372104,235.984814519
C200.924035865,170.733469137 278.980337334,170.733469137 327.124001095,235.984814519" style="stroke:#929292"/>
                     <path id="gv_CE290551_5" d="M326.211207226,237.22196648 C373.850748853,301.790051701 373.850748853,406.475601815 326.211207226,471.043687036 C278.571665598,535.611772257 201.3327076,535.611772257 153.693165973,471.043687036 C106.053624345,406.475601815 106.053624345,301.790051701 153.693165973,237.22196648
C201.3327076,172.653881259 278.571665598,172.653881259 326.211207226,237.22196648" style="stroke:#929292"/>
                     <path id="gv_CE290551_6" d="M325.298413357,238.459118441 C372.43383285,302.343943501 372.43383285,405.921710015 325.298413357,469.806535075 C278.162993863,533.691360135 201.741379336,533.691360135 154.605959842,469.806535075 C107.470540348,405.921710015 107.470540348,302.343943501 154.605959842,238.459118441
C201.741379336,174.574293381 278.162993863,174.574293381 325.298413357,238.459118441" style="stroke:#929292"/>
                     <path id="gv_CE290551_7" d="M324.385619488,239.696270401 C371.016916848,302.8978353 371.016916848,405.367818216 324.385619488,468.569383115 C277.754322128,531.770948014 202.150051071,531.770948014 155.518753711,468.569383115 C108.887456351,405.367818216 108.887456351,302.8978353 155.518753711,239.696270401
C202.150051071,176.494705502 277.754322128,176.494705502 324.385619488,239.696270401" style="stroke:#929292"/>
                     <path id="gv_CE290551_8" d="M323.472825619,240.933422362 C369.600000845,303.4517271 369.600000845,404.813926416 323.472825619,467.332231154 C277.345650392,529.850535892 202.558722806,529.850535892 156.43154758,467.332231154 C110.304372354,404.813926416 110.304372354,303.4517271 156.43154758,240.933422362
C202.558722806,178.415117624 277.345650392,178.415117624 323.472825619,240.933422362" style="stroke:#929292"/>
                     <path id="gv_CE290551_9" d="M322.56003175,242.170574322 C368.183084842,304.005618899 368.183084842,404.260034617 322.56003175,466.095079193 C276.936978657,527.93012377 202.967394542,527.93012377 157.344341449,466.095079193 C111.721288356,404.260034617 111.721288356,304.005618899 157.344341449,242.170574322
C202.967394542,180.335529746 276.936978657,180.335529746 322.56003175,242.170574322" style="stroke:#929292"/>
                     <path id="gv_CE290551_10" d="M321.64723788,243.407726283 C366.76616884,304.559510699 366.76616884,403.706142817 321.64723788,464.857927233 C276.528306921,526.009711649 203.376066277,526.009711649 158.257135318,464.857927233 C113.138204359,403.706142817 113.138204359,304.559510699 158.257135318,243.407726283
C203.376066277,182.255941867 276.528306921,182.255941867 321.64723788,243.407726283" style="stroke:#929292"/>
                     <path id="gv_CE290551_11" d="M320.734444011,244.644878244 C365.349252837,305.113402498 365.349252837,403.152251018 320.734444011,463.620775272 C276.119635186,524.089299527 203.784738013,524.089299527 159.169929187,463.620775272 C114.555120362,403.152251018 114.555120362,305.113402498 159.169929187,244.644878244
C203.784738013,184.176353989 276.119635186,184.176353989 320.734444011,244.644878244" style="stroke:#929292"/>
                     <path id="gv_CE290551_12" d="M319.821650142,245.882030204 C363.932336834,305.667294298 363.932336834,402.598359218 319.821650142,462.383623312 C275.71096345,522.168887405 204.193409748,522.168887405 160.082723056,462.383623312 C115.972036364,402.598359218 115.972036364,305.667294298 160.082723056,245.882030204
C204.193409748,186.096766111 275.71096345,186.096766111 319.821650142,245.882030204" style="stroke:#929292"/>
                     <path id="gv_CE290551_13" d="M318.908856273,247.119182165 C362.515420832,306.221186097 362.515420832,402.044467418 318.908856273,461.146471351 C275.302291715,520.248475284 204.602081484,520.248475284 160.995516925,461.146471351 C117.388952367,402.044467418 117.388952367,306.221186097 160.995516925,247.119182165
C204.602081484,188.017178232 275.302291715,188.017178232 318.908856273,247.119182165" style="stroke:#929292"/>
                     <path id="gv_CE290551_14" d="M317.996062404,248.356334126 C361.098504829,306.775077897 361.098504829,401.490575619 317.996062404,459.90931939 C274.893619979,518.328063162 205.010753219,518.328063162 161.908310794,459.90931939 C118.80586837,401.490575619 118.80586837,306.775077897 161.908310794,248.356334126
C205.010753219,189.937590354 274.893619979,189.937590354 317.996062404,248.356334126" style="stroke:#929292"/>
                     <path id="gv_CE290551_15" d="M317.083268535,249.593486086 C359.681588826,307.328969697 359.681588826,400.936683819 317.083268535,458.67216743 C274.484948244,516.40765104 205.419424955,516.40765104 162.821104663,458.67216743 C120.222784372,400.936683819 120.222784372,307.328969697 162.821104663,249.593486086
C205.419424955,191.858002476 274.484948244,191.858002476 317.083268535,249.593486086" style="stroke:#929292"/>
                     <path id="gv_CE290551_16" d="M316.170474666,250.830638047 C358.264672824,307.882861496 358.264672824,400.38279202 316.170474666,457.435015469 C274.076276509,514.487238919 205.82809669,514.487238919 163.733898533,457.435015469 C121.639700375,400.38279202 121.639700375,307.882861496 163.733898533,250.830638047
C205.82809669,193.778414597 274.076276509,193.778414597 316.170474666,250.830638047" style="stroke:#929292"/>
                     <path id="gv_CE290551_17" d="M315.257680797,252.067790007 C356.847756821,308.436753296 356.847756821,399.82890022 315.257680797,456.197863509 C273.667604773,512.566826797 206.236768425,512.566826797 164.646692402,456.197863509 C123.056616378,399.82890022 123.056616378,308.436753296 164.646692402,252.067790007
C206.236768425,195.698826719 273.667604773,195.698826719 315.257680797,252.067790007" style="stroke:#929292"/>
                     <path id="gv_CE290551_18" d="M314.344886928,253.304941968 C355.430840818,308.990645095 355.430840818,399.275008421 314.344886928,454.960711548 C273.258933038,510.646414675 206.645440161,510.646414675 165.559486271,454.960711548 C124.47353238,399.275008421 124.47353238,308.990645095 165.559486271,253.304941968
C206.645440161,197.619238841 273.258933038,197.619238841 314.344886928,253.304941968" style="stroke:#929292"/>
                     <path id="gv_CE290551_19" d="M313.432093059,254.542093929 C354.013924815,309.544536895 354.013924815,398.721116621 313.432093059,453.723559587 C272.850261302,508.726002553 207.054111896,508.726002553 166.47228014,453.723559587 C125.890448383,398.721116621 125.890448383,309.544536895 166.47228014,254.542093929
C207.054111896,199.539650962 272.850261302,199.539650962 313.432093059,254.542093929" style="stroke:#929292"/>
                     <path id="gv_CE290551_20" d="M312.51929919,255.779245889 C352.597008813,310.098428694 352.597008813,398.167224822 312.51929919,452.486407627 C272.441589567,506.805590432 207.462783632,506.805590432 167.385074009,452.486407627 C127.307364386,398.167224822 127.307364386,310.098428694 167.385074009,255.779245889
C207.462783632,201.460063084 272.441589567,201.460063084 312.51929919,255.779245889" style="stroke:#929292"/>
                     <path id="gv_CE290551_21" d="M311.606505321,257.01639785 C351.18009281,310.652320494 351.18009281,397.613333022 311.606505321,451.249255666 C272.032917831,504.88517831 207.871455367,504.88517831 168.297867878,451.249255666 C128.724280388,397.613333022 128.724280388,310.652320494 168.297867878,257.01639785
C207.871455367,203.380475206 272.032917831,203.380475206 311.606505321,257.01639785" style="stroke:#929292"/>
                     <path id="gv_CE290551_22" d="M310.693711452,258.25354981 C349.763176807,311.206212293 349.763176807,397.059441223 310.693711452,450.012103705 C271.624246096,502.964766188 208.280127103,502.964766188 169.210661747,450.012103705 C130.141196391,397.059441223 130.141196391,311.206212293 169.210661747,258.25354981
C208.280127103,205.300887328 271.624246096,205.300887328 310.693711452,258.25354981" style="stroke:#929292"/>
                     <path id="gv_CE290551_23" d="M309.780917583,259.490701771 C348.346260805,311.760104093 348.346260805,396.505549423 309.780917583,448.774951745 C271.21557436,501.044354067 208.688798838,501.044354067 170.123455616,448.774951745 C131.558112394,396.505549423 131.558112394,311.760104093 170.123455616,259.490701771
C208.688798838,207.221299449 271.21557436,207.221299449 309.780917583,259.490701771" style="stroke:#929292"/>
                     <path id="gv_CE290551_24" d="M308.868123714,260.727853732 C346.929344802,312.313995892 346.929344802,395.951657623 308.868123714,447.537799784 C270.806902625,499.123941945 209.097470574,499.123941945 171.036249485,447.537799784 C132.975028397,395.951657623 132.975028397,312.313995892 171.036249485,260.727853732
C209.097470574,209.141711571 270.806902625,209.141711571 308.868123714,260.727853732" style="stroke:#929292"/>
                     <path id="gv_CE290551_25" d="M307.955329844,261.965005692 C345.512428799,312.867887692 345.512428799,395.397765824 307.955329844,446.300647824 C270.39823089,497.203529823 209.506142309,497.203529823 171.949043354,446.300647824 C134.391944399,395.397765824 134.391944399,312.867887692 171.949043354,261.965005692
C209.506142309,211.062123693 270.39823089,211.062123693 307.955329844,261.965005692" style="stroke:#929292"/>
                     <path id="gv_CE290551_26" d="M307.042535975,263.202157653 C344.095512797,313.421779492 344.095512797,394.843874024 307.042535975,445.063495863 C269.989559154,495.283117702 209.914814044,495.283117702 172.861837223,445.063495863 C135.808860402,394.843874024 135.808860402,313.421779492 172.861837223,263.202157653
C209.914814044,212.982535814 269.989559154,212.982535814 307.042535975,263.202157653" style="stroke:#929292"/>
                     <path id="gv_CE290551_27" d="M306.129742106,264.439309614 C342.678596794,313.975671291 342.678596794,394.289982225 306.129742106,443.826343902 C269.580887419,493.36270558 210.32348578,493.36270558 173.774631092,443.826343902 C137.225776405,394.289982225 137.225776405,313.975671291 173.774631092,264.439309614
C210.32348578,214.902947936 269.580887419,214.902947936 306.129742106,264.439309614" style="stroke:#929292"/>
                     <path id="gv_CE290551_28" d="M305.216948237,265.676461574 C341.261680791,314.529563091 341.261680791,393.736090425 305.216948237,442.589191942 C269.172215683,491.442293458 210.732157515,491.442293458 174.687424961,442.589191942 C138.642692407,393.736090425 138.642692407,314.529563091 174.687424961,265.676461574
C210.732157515,216.823360058 269.172215683,216.823360058 305.216948237,265.676461574" style="stroke:#929292"/>
                     <path id="gv_CE290551_29" d="M304.304154368,266.913613535 C339.844764789,315.08345489 339.844764789,393.182198626 304.304154368,441.352039981 C268.763543948,489.521881337 211.140829251,489.521881337 175.60021883,441.352039981 C140.05960841,393.182198626 140.05960841,315.08345489 175.60021883,266.913613535
C211.140829251,218.743772179 268.763543948,218.743772179 304.304154368,266.913613535" style="stroke:#929292"/>
                     <path id="gv_CE290551_30" d="M303.391360499,268.150765495 C338.427848786,315.63734669 338.427848786,392.628306826 303.391360499,440.114888021 C268.354872212,487.601469215 211.549500986,487.601469215 176.513012699,440.114888021 C141.476524413,392.628306826 141.476524413,315.63734669 176.513012699,268.150765495
C211.549500986,220.664184301 268.354872212,220.664184301 303.391360499,268.150765495" style="stroke:#929292"/>
                     <path id="gv_CE290551_31" d="M302.47856663,269.387917456 C337.010932783,316.191238489 337.010932783,392.074415027 302.47856663,438.87773606 C267.946200477,485.681057093 211.958172722,485.681057093 177.425806568,438.87773606 C142.893440415,392.074415027 142.893440415,316.191238489 177.425806568,269.387917456
C211.958172722,222.584596423 267.946200477,222.584596423 302.47856663,269.387917456" style="stroke:#929292"/>
                     <path id="gv_CE290551_32" d="M301.565772761,270.625069417 C335.594016781,316.745130289 335.594016781,391.520523227 301.565772761,437.640584099 C267.537528742,483.760644972 212.366844457,483.760644972 178.338600438,437.640584099 C144.310356418,391.520523227 144.310356418,316.745130289 178.338600438,270.625069417
C212.366844457,224.505008544 267.537528742,224.505008544 301.565772761,270.625069417" style="stroke:#929292"/>
                     <path id="gv_CE290551_33" d="M300.652978892,271.862221377 C334.177100778,317.299022088 334.177100778,390.966631428 300.652978892,436.403432139 C267.128857006,481.84023285 212.775516192,481.84023285 179.251394307,436.403432139 C145.727272421,390.966631428 145.727272421,317.299022088 179.251394307,271.862221377
C212.775516192,226.425420666 267.128857006,226.425420666 300.652978892,271.862221377" style="stroke:#929292"/>
                     <path id="gv_CE290551_34" d="M299.740185023,273.099373338 C332.760184775,317.852913888 332.760184775,390.412739628 299.740185023,435.166280178 C266.720185271,479.919820728 213.184187928,479.919820728 180.164188176,435.166280178 C147.144188423,390.412739628 147.144188423,317.852913888 180.164188176,273.099373338
C213.184187928,228.345832788 266.720185271,228.345832788 299.740185023,273.099373338" style="stroke:#929292"/>
                     <path id="gv_CE290551_35" d="M298.827391154,274.336525298 C331.343268773,318.406805687 331.343268773,389.858847829 298.827391154,433.929128218 C266.311513535,477.999408607 213.592859663,477.999408607 181.076982045,433.929128218 C148.561104426,389.858847829 148.561104426,318.406805687 181.076982045,274.336525298
C213.592859663,230.266244909 266.311513535,230.266244909 298.827391154,274.336525298" style="stroke:#929292"/>
                     <path id="gv_CE290551_36" d="M297.914597285,275.573677259 C329.92635277,318.960697487 329.92635277,389.304956029 297.914597285,432.691976257 C265.9028418,476.078996485 214.001531399,476.078996485 181.989775914,432.691976257 C149.978020429,389.304956029 149.978020429,318.960697487 181.989775914,275.573677259
C214.001531399,232.186657031 265.9028418,232.186657031 297.914597285,275.573677259" style="stroke:#929292"/>
                     <path id="gv_CE290551_37" d="M297.001803416,276.81082922 C328.509436767,319.514589287 328.509436767,388.751064229 297.001803416,431.454824296 C265.494170064,474.158584363 214.410203134,474.158584363 182.902569783,431.454824296 C151.394936431,388.751064229 151.394936431,319.514589287 182.902569783,276.81082922
C214.410203134,234.107069153 265.494170064,234.107069153 297.001803416,276.81082922" style="stroke:#929292"/>
                     <path id="gv_CE290551_38" d="M296.089009547,278.04798118 C327.092520764,320.068481086 327.092520764,388.19717243 296.089009547,430.217672336 C265.085498329,472.238172241 214.81887487,472.238172241 183.815363652,430.217672336 C152.811852434,388.19717243 152.811852434,320.068481086 183.815363652,278.04798118
C214.81887487,236.027481274 265.085498329,236.027481274 296.089009547,278.04798118" style="stroke:#929292"/>
                     <path id="gv_CE290551_39" d="M295.176215678,279.285133141 C325.675604762,320.622372886 325.675604762,387.64328063 295.176215678,428.980520375 C264.676826593,470.31776012 215.227546605,470.31776012 184.728157521,428.980520375 C154.228768437,387.64328063 154.228768437,320.622372886 184.728157521,279.285133141
C215.227546605,237.947893396 264.676826593,237.947893396 295.176215678,279.285133141" style="stroke:#929292"/>
                     <path id="gv_CE290551_40" d="M294.263421809,280.522285101 C324.258688759,321.176264685 324.258688759,387.089388831 294.263421809,427.743368414 C264.268154858,468.397347998 215.636218341,468.397347998 185.64095139,427.743368414 C155.645684439,387.089388831 155.645684439,321.176264685 185.64095139,280.522285101
C215.636218341,239.868305518 264.268154858,239.868305518 294.263421809,280.522285101" style="stroke:#929292"/>
                     <path id="gv_CE290551_41" d="M293.350627939,281.759437062 C322.841772756,321.730156485 322.841772756,386.535497031 293.350627939,426.506216454 C263.859483123,466.476935876 216.044890076,466.476935876 186.553745259,426.506216454 C157.062600442,386.535497031 157.062600442,321.730156485 186.553745259,281.759437062
C216.044890076,241.78871764 263.859483123,241.78871764 293.350627939,281.759437062" style="stroke:#929292"/>
                     <path id="gv_CE290551_42" d="M292.43783407,282.996589023 C321.424856754,322.284048284 321.424856754,385.981605232 292.43783407,425.269064493 C263.450811387,464.556523755 216.453561811,464.556523755 187.466539128,425.269064493 C158.479516445,385.981605232 158.479516445,322.284048284 187.466539128,282.996589023
C216.453561811,243.709129761 263.450811387,243.709129761 292.43783407,282.996589023" style="stroke:#929292"/>
                     <path id="gv_CE290551_43" d="M291.525040201,284.233740983 C320.007940751,322.837940084 320.007940751,385.427713432 291.525040201,424.031912533 C263.042139652,462.636111633 216.862233547,462.636111633 188.379332997,424.031912533 C159.896432448,385.427713432 159.896432448,322.837940084 188.379332997,284.233740983
C216.862233547,245.629541883 263.042139652,245.629541883 291.525040201,284.233740983" style="stroke:#929292"/>
                     <path id="gv_CE290551_44" d="M290.612246332,285.470892944 C318.591024748,323.391831883 318.591024748,384.873821633 290.612246332,422.794760572 C262.633467916,460.715699511 217.270905282,460.715699511 189.292126866,422.794760572 C161.31334845,384.873821633 161.31334845,323.391831883 189.292126866,285.470892944
C217.270905282,247.549954005 262.633467916,247.549954005 290.612246332,285.470892944" style="stroke:#929292"/>
                     <path id="gv_CE290551_45" d="M289.699452463,286.708044905 C317.174108746,323.945723683 317.174108746,384.319929833 289.699452463,421.557608611 C262.224796181,458.79528739 217.679577018,458.79528739 190.204920735,421.557608611 C162.730264453,384.319929833 162.730264453,323.945723683 190.204920735,286.708044905
C217.679577018,249.470366126 262.224796181,249.470366126 289.699452463,286.708044905" style="stroke:#929292"/>
                     <path id="gv_CE290551_46" d="M288.786658594,287.945196865 C315.757192743,324.499615482 315.757192743,383.766038034 288.786658594,420.320456651 C261.816124445,456.874875268 218.088248753,456.874875268 191.117714604,420.320456651 C164.147180456,383.766038034 164.147180456,324.499615482 191.117714604,287.945196865
C218.088248753,251.390778248 261.816124445,251.390778248 288.786658594,287.945196865" style="stroke:#929292"/>
                     <path id="gv_CE290551_47" d="M287.873864725,289.182348826 C314.34027674,325.053507282 314.34027674,383.212146234 287.873864725,419.08330469 C261.40745271,454.954463146 218.496920489,454.954463146 192.030508473,419.08330469 C165.564096458,383.212146234 165.564096458,325.053507282 192.030508473,289.182348826
C218.496920489,253.31119037 261.40745271,253.31119037 287.873864725,289.182348826" style="stroke:#929292"/>
                     <path id="gv_CE290551_48" d="M286.961070856,290.419500786 C312.923360738,325.607399081 312.923360738,382.658254434 286.961070856,417.84615273 C260.998780974,453.034051025 218.905592224,453.034051025 192.943302343,417.84615273 C166.981012461,382.658254434 166.981012461,325.607399081 192.943302343,290.419500786
C218.905592224,255.231602491 260.998780974,255.231602491 286.961070856,290.419500786" style="stroke:#929292"/>
                     <path id="gv_CE290551_49" d="M286.048276987,291.656652747 C311.506444735,326.161290881 311.506444735,382.104362635 286.048276987,416.609000769 C260.590109239,451.113638903 219.31426396,451.113638903 193.856096212,416.609000769 C168.397928464,382.104362635 168.397928464,326.161290881 193.856096212,291.656652747
C219.31426396,257.152014613 260.590109239,257.152014613 286.048276987,291.656652747" style="stroke:#929292"/>
                     <path id="gv_CE290551_50" d="M285.135483118,292.893804708 C310.089528732,326.715182681 310.089528732,381.550470835 285.135483118,415.371848808 C260.181437504,449.193226781 219.722935695,449.193226781 194.768890081,415.371848808 C169.814844466,381.550470835 169.814844466,326.715182681 194.768890081,292.893804708
C219.722935695,259.072426735 260.181437504,259.072426735 285.135483118,292.893804708" style="stroke:#929292"/>
                     <path id="gv_CE290551_51" d="M284.222689249,294.130956668 C308.67261273,327.26907448 308.67261273,380.996579036 284.222689249,414.134696848 C259.772765768,447.27281466 220.13160743,447.27281466 195.68168395,414.134696848 C171.231760469,380.996579036 171.231760469,327.26907448 195.68168395,294.130956668
C220.13160743,260.992838856 259.772765768,260.992838856 284.222689249,294.130956668" style="stroke:#929292"/>
                     <path id="gv_CE290551_52" d="M283.30989538,295.368108629 C307.255696727,327.82296628 307.255696727,380.442687236 283.30989538,412.897544887 C259.364094033,445.352402538 220.540279166,445.352402538 196.594477819,412.897544887 C172.648676472,380.442687236 172.648676472,327.82296628 196.594477819,295.368108629
C220.540279166,262.913250978 259.364094033,262.913250978 283.30989538,295.368108629" style="stroke:#929292"/>
                     <path id="gv_CE290551_53" d="M282.397101511,296.605260589 C305.838780724,328.376858079 305.838780724,379.888795437 282.397101511,411.660392926 C258.955422297,443.431990416 220.948950901,443.431990416 197.507271688,411.660392926 C174.065592474,379.888795437 174.065592474,328.376858079 197.507271688,296.605260589
C220.948950901,264.8336631 258.955422297,264.8336631 282.397101511,296.605260589" style="stroke:#929292"/>
                     <path id="gv_CE290551_54" d="M281.484307642,297.84241255 C304.421864721,328.930749879 304.421864721,379.334903637 281.484307642,410.423240966 C258.546750562,441.511578295 221.357622637,441.511578295 198.420065557,410.423240966 C175.482508477,379.334903637 175.482508477,328.930749879 198.420065557,297.84241255
C221.357622637,266.754075221 258.546750562,266.754075221 281.484307642,297.84241255" style="stroke:#929292"/>
                     <path id="gv_CE290551_55" d="M280.571513773,299.079564511 C303.004948719,329.484641678 303.004948719,378.781011838 280.571513773,409.186089005 C258.138078826,439.591166173 221.766294372,439.591166173 199.332859426,409.186089005 C176.89942448,378.781011838 176.89942448,329.484641678 199.332859426,299.079564511
C221.766294372,268.674487343 258.138078826,268.674487343 280.571513773,299.079564511" style="stroke:#929292"/>
                     <path id="gv_CE290551_56" d="M279.658719904,300.316716471 C301.588032716,330.038533478 301.588032716,378.227120038 279.658719904,407.948937045 C257.729407091,437.670754051 222.174966108,437.670754051 200.245653295,407.948937045 C178.316340482,378.227120038 178.316340482,330.038533478 200.245653295,300.316716471
C222.174966108,270.594899465 257.729407091,270.594899465 279.658719904,300.316716471" style="stroke:#929292"/>
                     <path id="gv_CE290551_57" d="M278.745926034,301.553868432 C300.171116713,330.592425277 300.171116713,377.673228239 278.745926034,406.711785084 C257.320735356,435.75034193 222.583637843,435.75034193 201.158447164,406.711785084 C179.733256485,377.673228239 179.733256485,330.592425277 201.158447164,301.553868432
C222.583637843,272.515311586 257.320735356,272.515311586 278.745926034,301.553868432" style="stroke:#929292"/>
                     <path id="gv_CE290551_58" d="M277.833132165,302.791020393 C298.754200711,331.146317077 298.754200711,377.119336439 277.833132165,405.474633123 C256.91206362,433.829929808 222.992309579,433.829929808 202.071241033,405.474633123 C181.150172488,377.119336439 181.150172488,331.146317077 202.071241033,302.791020393
C222.992309579,274.435723708 256.91206362,274.435723708 277.833132165,302.791020393" style="stroke:#929292"/>
                     <path id="gv_CE290551_59" d="M276.920338296,304.028172353 C297.337284708,331.700208876 297.337284708,376.565444639 276.920338296,404.237481163 C256.503391885,431.909517686 223.400981314,431.909517686 202.984034902,404.237481163 C182.567088491,376.565444639 182.567088491,331.700208876 202.984034902,304.028172353
C223.400981314,276.35613583 256.503391885,276.35613583 276.920338296,304.028172353" style="stroke:#929292"/>
                     <path id="gv_CE290551_60" d="M276.007544427,305.265324314 C295.920368705,332.254100676 295.920368705,376.01155284 276.007544427,403.000329202 C256.094720149,429.989105564 223.809653049,429.989105564 203.896828771,403.000329202 C183.984004493,376.01155284 183.984004493,332.254100676 203.896828771,305.265324314
C223.809653049,278.276547951 256.094720149,278.276547951 276.007544427,305.265324314" style="stroke:#929292"/>
                     <path id="gv_CE290551_61" d="M275.094750558,306.502476274 C294.503452703,332.807992476 294.503452703,375.45766104 275.094750558,401.763177242 C255.686048414,428.068693443 224.218324785,428.068693443 204.80962264,401.763177242 C185.400920496,375.45766104 185.400920496,332.807992476 204.80962264,306.502476274
C224.218324785,280.196960073 255.686048414,280.196960073 275.094750558,306.502476274" style="stroke:#929292"/>
                     <path id="gv_CE290551_62" d="M274.181956689,307.739628235 C293.0865367,333.361884275 293.0865367,374.903769241 274.181956689,400.526025281 C255.277376678,426.148281321 224.62699652,426.148281321 205.722416509,400.526025281 C186.817836499,374.903769241 186.817836499,333.361884275 205.722416509,307.739628235
C224.62699652,282.117372195 255.277376678,282.117372195 274.181956689,307.739628235" style="stroke:#929292"/>
                     <path id="gv_CE290551_63" d="M273.26916282,308.976780196 C291.669620697,333.915776075 291.669620697,374.349877441 273.26916282,399.28887332 C254.868704943,424.227869199 225.035668256,424.227869199 206.635210378,399.28887332 C188.234752501,374.349877441 188.234752501,333.915776075 206.635210378,308.976780196
C225.035668256,284.037784317 254.868704943,284.037784317 273.26916282,308.976780196" style="stroke:#929292"/>
                     <path id="gv_CE290551_64" d="M272.356368951,310.213932156 C290.252704695,334.469667874 290.252704695,373.795985642 272.356368951,398.05172136 C254.460033207,422.307457078 225.444339991,422.307457078 207.548004248,398.05172136 C189.651668504,373.795985642 189.651668504,334.469667874 207.548004248,310.213932156
C225.444339991,285.958196438 254.460033207,285.958196438 272.356368951,310.213932156" style="stroke:#929292"/>
                     <path id="gv_CE290551_65" d="M271.443575082,311.451084117 C288.835788692,335.023559674 288.835788692,373.242093842 271.443575082,396.814569399 C254.051361472,420.387044956 225.853011727,420.387044956 208.460798117,396.814569399 C191.068584507,373.242093842 191.068584507,335.023559674 208.460798117,311.451084117
C225.853011727,287.87860856 254.051361472,287.87860856 271.443575082,311.451084117" style="stroke:#929292"/>
                     <path id="gv_CE290551_66" d="M270.530781213,312.688236077 C287.418872689,335.577451473 287.418872689,372.688202043 270.530781213,395.577417439 C253.642689737,418.466632834 226.261683462,418.466632834 209.373591986,395.577417439 C192.485500509,372.688202043 192.485500509,335.577451473 209.373591986,312.688236077
C226.261683462,289.799020682 253.642689737,289.799020682 270.530781213,312.688236077" style="stroke:#929292"/>
                     <path id="gv_CE290551_67" d="M269.617987344,313.925388038 C286.001956687,336.131343273 286.001956687,372.134310243 269.617987344,394.340265478 C253.234018001,416.546220713 226.670355197,416.546220713 210.286385855,394.340265478 C193.902416512,372.134310243 193.902416512,336.131343273 210.286385855,313.925388038
C226.670355197,291.719432803 253.234018001,291.719432803 269.617987344,313.925388038" style="stroke:#929292"/>
                     <path id="gv_CE290551_68" d="M268.705193475,315.162539999 C284.585040684,336.685235072 284.585040684,371.580418444 268.705193475,393.103113517 C252.825346266,414.625808591 227.079026933,414.625808591 211.199179724,393.103113517 C195.319332515,371.580418444 195.319332515,336.685235072 211.199179724,315.162539999
C227.079026933,293.639844925 252.825346266,293.639844925 268.705193475,315.162539999" style="stroke:#929292"/>
                     <path id="gv_CE290551_69" d="M267.792399606,316.399691959 C283.168124681,337.239126872 283.168124681,371.026526644 267.792399606,391.865961557 C252.41667453,412.705396469 227.487698668,412.705396469 212.111973593,391.865961557 C196.736248517,371.026526644 196.736248517,337.239126872 212.111973593,316.399691959
C227.487698668,295.560257047 252.41667453,295.560257047 267.792399606,316.399691959" style="stroke:#929292"/>
                     <path id="gv_CE290551_70" d="M266.879605737,317.63684392 C281.751208679,337.793018671 281.751208679,370.472634844 266.879605737,390.628809596 C252.008002795,410.784984348 227.896370404,410.784984348 213.024767462,390.628809596 C198.15316452,370.472634844 198.15316452,337.793018671 213.024767462,317.63684392
C227.896370404,297.480669168 252.008002795,297.480669168 266.879605737,317.63684392" style="stroke:#929292"/>
                     <path id="gv_CE290551_71" d="M265.966811868,318.87399588 C280.334292676,338.346910471 280.334292676,369.918743045 265.966811868,389.391657635 C251.599331059,408.864572226 228.305042139,408.864572226 213.937561331,389.391657635 C199.570080523,369.918743045 199.570080523,338.346910471 213.937561331,318.87399588
C228.305042139,299.40108129 251.599331059,299.40108129 265.966811868,318.87399588" style="stroke:#929292"/>
                     <path id="gv_CE290551_72" d="M265.054017999,320.111147841 C278.917376673,338.900802271 278.917376673,369.364851245 265.054017999,388.154505675 C251.190659324,406.944160104 228.713713875,406.944160104 214.8503552,388.154505675 C200.986996525,369.364851245 200.986996525,338.900802271 214.8503552,320.111147841
C228.713713875,301.321493412 251.190659324,301.321493412 265.054017999,320.111147841" style="stroke:#929292"/>
                     <path id="gv_CE290551_73" d="M264.141224129,321.348299802 C277.50046067,339.45469407 277.50046067,368.810959446 264.141224129,386.917353714 C250.781987588,405.023747983 229.12238561,405.023747983 215.763149069,386.917353714 C202.403912528,368.810959446 202.403912528,339.45469407 215.763149069,321.348299802
C229.12238561,303.241905533 250.781987588,303.241905533 264.141224129,321.348299802" style="stroke:#929292"/>
                     <path id="gv_CE290551_74" d="M263.22843026,322.585451762 C276.083544668,340.00858587 276.083544668,368.257067646 263.22843026,385.680201754 C250.373315853,403.103335861 229.531057346,403.103335861 216.675942938,385.680201754 C203.820828531,368.257067646 203.820828531,340.00858587 216.675942938,322.585451762
C229.531057346,305.162317655 250.373315853,305.162317655 263.22843026,322.585451762" style="stroke:#929292"/>
                     <path id="gv_CE290551_75" d="M262.315636391,323.822603723 C274.666628665,340.562477669 274.666628665,367.703175847 262.315636391,384.443049793 C249.964644118,401.182923739 229.939729081,401.182923739 217.588736807,384.443049793 C205.237744533,367.703175847 205.237744533,340.562477669 217.588736807,323.822603723
C229.939729081,307.082729777 249.964644118,307.082729777 262.315636391,323.822603723" style="stroke:#929292"/>
                     <path id="gv_CE290551_76" d="M261.402842522,325.059755684 C273.249712662,341.116369469 273.249712662,367.149284047 261.402842522,383.205897832 C249.555972382,399.262511618 230.348400816,399.262511618 218.501530676,383.205897832 C206.654660536,367.149284047 206.654660536,341.116369469 218.501530676,325.059755684
C230.348400816,309.003141898 249.555972382,309.003141898 261.402842522,325.059755684" style="stroke:#929292"/>
                     <path id="gv_CE290551_77" d="M260.490048653,326.296907644 C271.83279666,341.670261268 271.83279666,366.595392248 260.490048653,381.968745872 C249.147300647,397.342099496 230.757072552,397.342099496 219.414324545,381.968745872 C208.071576539,366.595392248 208.071576539,341.670261268 219.414324545,326.296907644
C230.757072552,310.92355402 249.147300647,310.92355402 260.490048653,326.296907644" style="stroke:#929292"/>
                     <path id="gv_CE290551_78" d="M259.577254784,327.534059605 C270.415880657,342.224153068 270.415880657,366.041500448 259.577254784,380.731593911 C248.738628911,395.421687374 231.165744287,395.421687374 220.327118414,380.731593911 C209.488492542,366.041500448 209.488492542,342.224153068 220.327118414,327.534059605
C231.165744287,312.843966142 248.738628911,312.843966142 259.577254784,327.534059605" style="stroke:#929292"/>
                     <path id="gv_CE290551_79" d="M258.664460915,328.771211565 C268.998964654,342.778044867 268.998964654,365.487608649 258.664460915,379.494441951 C248.329957176,393.501275252 231.574416023,393.501275252 221.239912283,379.494441951 C210.905408544,365.487608649 210.905408544,342.778044867 221.239912283,328.771211565
C231.574416023,314.764378263 248.329957176,314.764378263 258.664460915,328.771211565" style="stroke:#929292"/>
                     <path id="gv_CE290551_80" d="M257.751667046,330.008363526 C267.582048652,343.331936667 267.582048652,364.933716849 257.751667046,378.25728999 C247.92128544,391.580863131 231.983087758,391.580863131 222.152706153,378.25728999 C212.322324547,364.933716849 212.322324547,343.331936667 222.152706153,330.008363526
C231.983087758,316.684790385 247.92128544,316.684790385 257.751667046,330.008363526" style="stroke:#929292"/>
                     <path id="gv_CE290551_81" d="M256.838873177,331.245515487 C266.165132649,343.885828466 266.165132649,364.37982505 256.838873177,377.020138029 C247.512613705,389.660451009 232.391759494,389.660451009 223.065500022,377.020138029 C213.73924055,364.37982505 213.73924055,343.885828466 223.065500022,331.245515487
C232.391759494,318.605202507 247.512613705,318.605202507 256.838873177,331.245515487" style="stroke:#929292"/>
                     <path id="gv_CE290551_82" d="M255.926079308,332.482667447 C264.748216646,344.439720266 264.748216646,363.82593325 255.926079308,375.782986069 C247.103941969,387.740038887 232.800431229,387.740038887 223.978293891,375.782986069 C215.156156552,363.82593325 215.156156552,344.439720266 223.978293891,332.482667447
C232.800431229,320.525614629 247.103941969,320.525614629 255.926079308,332.482667447" style="stroke:#929292"/>
                     <path id="gv_CE290551_83" d="M255.013285439,333.719819408 C263.331300644,344.993612066 263.331300644,363.27204145 255.013285439,374.545834108 C246.695270234,385.819626766 233.209102965,385.819626766 224.89108776,374.545834108 C216.573072555,363.27204145 216.573072555,344.993612066 224.89108776,333.719819408
C233.209102965,322.44602675 246.695270234,322.44602675 255.013285439,333.719819408" style="stroke:#929292"/>
                     <path id="gv_CE290551_84" d="M254.10049157,334.956971368 C261.914384641,345.547503865 261.914384641,362.718149651 254.10049157,373.308682147 C246.286598499,383.899214644 233.6177747,383.899214644 225.803881629,373.308682147 C217.989988558,362.718149651 217.989988558,345.547503865 225.803881629,334.956971368
C233.6177747,324.366438872 246.286598499,324.366438872 254.10049157,334.956971368" style="stroke:#929292"/>
                     <path id="gv_CE290551_85" d="M253.187697701,336.194123329 C260.497468638,346.101395665 260.497468638,362.164257851 253.187697701,372.071530187 C245.877926763,381.978802522 234.026446435,381.978802522 226.716675498,372.071530187 C219.40690456,362.164257851 219.40690456,346.101395665 226.716675498,336.194123329
C234.026446435,326.286850994 245.877926763,326.286850994 253.187697701,336.194123329" style="stroke:#929292"/>
                     <path id="gv_CE290551_86" d="M252.274903832,337.43127529 C259.080552636,346.655287464 259.080552636,361.610366052 252.274903832,370.834378226 C245.469255028,380.058390401 234.435118171,380.058390401 227.629469367,370.834378226 C220.823820563,361.610366052 220.823820563,346.655287464 227.629469367,337.43127529
C234.435118171,328.207263115 245.469255028,328.207263115 252.274903832,337.43127529" style="stroke:#929292"/>
                     <path id="gv_CE290551_87" d="M251.362109963,338.66842725 C257.663636633,347.209179264 257.663636633,361.056474252 251.362109963,369.597226266 C245.060583292,378.137978279 234.843789906,378.137978279 228.542263236,369.597226266 C222.240736566,361.056474252 222.240736566,347.209179264 228.542263236,338.66842725
C234.843789906,330.127675237 245.060583292,330.127675237 251.362109963,338.66842725" style="stroke:#929292"/>
                     <path id="gv_CE290551_88" d="M250.449316094,339.905579211 C256.24672063,347.763071063 256.24672063,360.502582453 250.449316094,368.360074305 C244.651911557,376.217566157 235.252461642,376.217566157 229.455057105,368.360074305 C223.657652568,360.502582453 223.657652568,347.763071063 229.455057105,339.905579211
C235.252461642,332.048087359 244.651911557,332.048087359 250.449316094,339.905579211" style="stroke:#929292"/>
                     <path id="gv_CE290551_89" d="M249.536522224,341.142731172 C254.829804627,348.316962863 254.829804627,359.948690653 249.536522224,367.122922344 C244.243239821,374.297154036 235.661133377,374.297154036 230.367850974,367.122922344 C225.074568571,359.948690653 225.074568571,348.316962863 230.367850974,341.142731172
C235.661133377,333.96849948 244.243239821,333.96849948 249.536522224,341.142731172" style="stroke:#929292"/>
                     <path id="gv_CE290551_90" d="M248.623728355,342.379883132 C253.412888625,348.870854662 253.412888625,359.394798854 248.623728355,365.885770384 C243.834568086,372.376741914 236.069805113,372.376741914 231.280644843,365.885770384 C226.491484574,359.394798854 226.491484574,348.870854662 231.280644843,342.379883132
C236.069805113,335.888911602 243.834568086,335.888911602 248.623728355,342.379883132" style="stroke:#929292"/>
                     <path id="gv_CE290551_91" d="M247.710934486,343.617035093 C251.995972622,349.424746462 251.995972622,358.840907054 247.710934486,364.648618423 C243.425896351,370.456329792 236.478476848,370.456329792 232.193438712,364.648618423 C227.908400576,358.840907054 227.908400576,349.424746462 232.193438712,343.617035093
C236.478476848,337.809323724 243.425896351,337.809323724 247.710934486,343.617035093" style="stroke:#929292"/>
                     <path id="gv_CE290551_92" d="M246.798140617,344.854187053 C250.579056619,349.978638261 250.579056619,358.287015255 246.798140617,363.411466463 C243.017224615,368.535917671 236.887148583,368.535917671 233.106232581,363.411466463 C229.325316579,358.287015255 229.325316579,349.978638261 233.106232581,344.854187053
C236.887148583,339.729735845 243.017224615,339.729735845 246.798140617,344.854187053" style="stroke:#929292"/>
                     <path id="gv_CE290551_93" d="M245.885346748,346.091339014 C249.162140617,350.532530061 249.162140617,357.733123455 245.885346748,362.174314502 C242.60855288,366.615505549 237.295820319,366.615505549 234.01902645,362.174314502 C230.742232582,357.733123455 230.742232582,350.532530061 234.01902645,346.091339014
C237.295820319,341.650147967 242.60855288,341.650147967 245.885346748,346.091339014" style="stroke:#929292"/>
                     <path id="gv_CE290551_94" d="M244.972552879,347.328490975 C247.745224614,351.08642186 247.745224614,357.179231655 244.972552879,360.937162541 C242.199881144,364.695093427 237.704492054,364.695093427 234.931820319,360.937162541 C232.159148585,357.179231655 232.159148585,351.08642186 234.931820319,347.328490975
C237.704492054,343.570560089 242.199881144,343.570560089 244.972552879,347.328490975" style="stroke:#929292"/>
                     <path id="gv_CE290551_95" d="M244.05975901,348.565642935 C246.328308611,351.64031366 246.328308611,356.625339856 244.05975901,359.700010581 C241.791209409,362.774681306 238.11316379,362.774681306 235.844614189,359.700010581 C233.576064587,356.625339856 233.576064587,351.64031366 235.844614189,348.565642935
C238.11316379,345.49097221 241.791209409,345.49097221 244.05975901,348.565642935" style="stroke:#929292"/>
                     <path id="gv_CE290551_96" d="M243.146965141,349.802794896 C244.911392609,352.19420546 244.911392609,356.071448056 243.146965141,358.46285862 C241.382537673,360.854269184 238.521835525,360.854269184 236.757408058,358.46285862 C234.99298059,356.071448056 234.99298059,352.19420546 236.757408058,349.802794896
C238.521835525,347.411384332 241.382537673,347.411384332 243.146965141,349.802794896" style="stroke:#929292"/>
                     <path id="gv_CE290551_97" d="M242.234171272,351.039946856 C243.494476606,352.748097259 243.494476606,355.517556257 242.234171272,357.225706659 C240.973865938,358.933857062 238.930507261,358.933857062 237.670201927,357.225706659 C236.409896593,355.517556257 236.409896593,352.748097259 237.670201927,351.039946856
C238.930507261,349.331796454 240.973865938,349.331796454 242.234171272,351.039946856" style="stroke:#929292"/>
                     <path id="gv_CE290551_98" d="M241.321377403,352.277098817 C242.077560603,353.301989059 242.077560603,354.963664457 241.321377403,355.988554699 C240.565194202,357.01344494 239.339178996,357.01344494 238.582995796,355.988554699 C237.826812595,354.963664457 237.826812595,353.301989059 238.582995796,352.277098817
C239.339178996,351.252208575 240.565194202,351.252208575 241.321377403,352.277098817" style="stroke:#929292"/>
                     <path id="gv_CE290551_99" d="M240.408583534,353.514250778 C240.660644601,353.855880858 240.660644601,354.409772658 240.408583534,354.751402738 C240.156522467,355.093032819 239.747850732,355.093032819 239.495789665,354.751402738 C239.243728598,354.409772658 239.243728598,353.855880858 239.495789665,353.514250778
C239.747850732,353.172620697 240.156522467,353.172620697 240.408583534,353.514250778" style="stroke:#929292"/>
                  </g>
               </g>
               <path
                   style="fill:none;stroke:#0096FF;fill-rule:evenodd;stroke-linecap:round"
                   id="CE290551"
                   d="M332.528262405,472.858935841 C330.230617031,469.958192019 330.465639939,468.632228852 330.465639939,461.213426296 C332.830985822,451.8998546 321.830775986,453.754933754 324.645281029,448.571260306 C325.596182852,442.567502482 327.13846492,437.332478461 327.334945263,436.344705076
C327.474280847,425.700858496 326.87176308,430.645491138 321.930301037,424.704028827 C321.266208306,422.66016156 324.868780743,419.536215342 323.177507442,412.061862837 C321.705490396,406.842484095 322.090079497,404.626655963 321.098830101,403.161357631
C315.777524597,398.548269035 310.234249501,398.145450556 309.226799412,397.278623852 C308.324876485,394.701803153 323.793462431,376.248715298 308.395224553,371.502775406 C305.525027991,367.569639869 293.634771533,368.891767934 299.849119179,359.856695136
C300.99998604,352.60703206 303.502007589,347.709985474 300.680590116,342.395639194 C285.809382037,375.44997376 299.542179366,335.704304913 296.107499966,336.15964874 C292.161344079,332.518471008 274.650119039,337.834693967 280.32374812,322.377733218
C284.203709043,311.363764752 274.751979312,315.926555609 272.424732654,311.984304943 C239.141603403,323.094321329 278.727459087,287.847311714 260.722741555,287.494114587 C253.881865381,287.359917658 249.248885163,288.143795419 248.32620909,285.831089576
C246.268988311,274.731319532 250.073405785,258.817967007 240.477658864,260.485318038 C229.276670461,258.732744305 198.318909274,275.11601366 207.467738913,260.982155385 C191.741716738,227.429597058 190.711859983,221.202940263 170.464912786,236.141535073
C169.993600981,237.053537772 165.098743776,239.901603455 164.228797624,239.883195856 C154.244666845,232.301485783 151.684902535,232.407220597 147.678610153,238.627800282 C145.285646167,243.218166335 153.705905506,244.632207009 152.031257828,249.361266166
C152.218435511,263.659771063 151.096863565,270.752619582 154.525670638,272.732242269 C158.025203551,277.969663393 154.867328863,288.762009206 159.684515061,294.676390633 C166.555345658,294.025409879 162.972800555,297.515805712 165.479537427,308.593988643
C165.336011078,319.557967791 170.741302828,317.777403129 180.244361173,324.215432806 C181.815453669,345.954699995 192.274567983,362.101102285 204.751885964,392.046617302 C206.876631209,400.815935423 204.894679484,405.352903511 212.3680633,404.131254635
C209.52992358,419.879480817 215.968143935,413.234513245 226.539255374,412.257488386 C228.146171296,409.981184477 231.185987358,422.577452594 234.828794473,423.822591484 C236.239873277,425.720590102 241.592710798,423.608477132 245.808080944,425.485533357
C250.933977998,430.611942949 246.255656253,452.392792706 264.087367972,443.398531707 C274.502536779,438.14515233 269.572179119,440.192224289 271.325014445,455.491067223 C273.807129142,461.328347952 273.683812188,461.898441999 280.225540436,461.727140816
C299.65602833,461.727140816 293.596424862,467.619665772 290.127701661,476.314089142 C289.176172378,481.448081732 292.250697671,479.241267301 298.333769425,479.639972888 C308.842811763,477.834189149 315.412980936,475.782017467 315.569386933,473.746291984
C328.331617562,475.631092572 333.569771224,474.35216902 332.528262405,472.858935841 z"/>
            </g>
            <path
                style="fill:#FF2600;stroke:none"
                id="53236E51"
                d="M304.66947298,308.418443143 C321.004807506,324.753777669 321.004807506,351.238587855 304.66947298,367.573922382 C288.334138453,383.909256908 261.849328267,383.909256908 245.513993741,367.573922382 C229.178659214,351.238587855 229.178659214,324.753777669 245.513993741,308.418443143
C261.849328267,292.083108617 288.334138453,292.083108617 304.66947298,308.418443143 M303.655030946,309.432885177 C319.430104607,325.207958838 319.430104607,350.784406686 303.655030946,366.559480348 C287.879957284,382.334554009 262.303509436,382.334554009 246.528435775,366.559480348
C230.753362113,350.784406686 230.753362113,325.207958838 246.528435775,309.432885177 C262.303509436,293.657811515 287.879957284,293.657811515 303.655030946,309.432885177"/>
            <circle
                style="fill:none"
                id="767AD722"
                cx="370.03928085"
                cy="502.588826166"
                r="3.621323090366"/>
            <path
                style="fill:none"
                id="6FA1F822"
                d="M375.597797097,476.679046995 C376.978452474,476.679046995 378.359107852,476.679046995 379.739763229,476.679046995 C380.83433125,476.679046995 381.92889927,477.773615015 381.92889927,478.868183036 C381.92889927,479.443872859 381.92889927,480.019562682 381.92889927,480.595252505
C381.92889927,482.081242132 380.442909643,483.567231759 378.956920016,483.567231759 C378.185481332,483.567231759 377.414042647,483.567231759 376.642603962,483.567231759 C374.659356055,483.567231759 372.676108147,481.583983852 372.676108147,479.600735944
C372.676108147,479.600735944 372.676108147,479.600735944 372.676108147,479.600735944 C372.676108147,478.13989147 374.136952622,476.679046995 375.597797097,476.679046995 z"/>
            <path
                style="fill:none"
                id="6BC15922"
                d="M393.544476726,502.129676983 C394.682559455,502.129676983 395.820642183,502.129676983 396.958724912,502.129676983 C397.934391308,502.129676983 398.910057703,503.105343379 398.910057703,504.081009774 C398.910057703,504.774886608 398.910057703,505.468763443 398.910057703,506.162640277
C398.910057703,507.484780909 397.587917071,508.806921542 396.265776439,508.806921542 C395.694285397,508.806921542 395.122794356,508.806921542 394.551303315,508.806921542 C392.630285528,508.806921542 390.709267741,506.885903755 390.709267741,504.964885968
C390.709267741,504.964885968 390.709267741,504.964885968 390.709267741,504.964885968 C390.709267741,503.547281475 392.126872233,502.129676983 393.544476726,502.129676983 z"/>
            <path
                style="fill:none"
                id="42E78922"
                d="M427.811184808,518.630695719 C429.02459429,518.630695719 430.238003773,518.630695719 431.451413256,518.630695719 C432.226816894,518.630695719 433.002220533,519.406099358 433.002220533,520.181502997 C433.002220533,520.813476591 433.002220533,521.445450185 433.002220533,522.077423779
C433.002220533,523.175655926 431.903988386,524.273888074 430.805756238,524.273888074 C430.131674176,524.273888074 429.457592114,524.273888074 428.783510051,524.273888074 C427.129630652,524.273888074 425.475751252,522.620008674 425.475751252,520.966129275
C425.475751252,520.966129275 425.475751252,520.966129275 425.475751252,520.966129275 C425.475751252,519.798412497 426.64346803,518.630695719 427.811184808,518.630695719 z"/>
            <path
                style="fill:none"
                id="DF56B922"
                d="M352.001407987,451.750700504 C352.642946576,451.750700504 353.284485164,451.750700504 353.926023753,451.750700504 C354.674814537,451.750700504 355.42360532,452.499491288 355.42360532,453.248282071 C355.42360532,454.194644804 355.42360532,455.141007536 355.42360532,456.087370268
C355.42360532,457.093462887 354.417512702,458.099555506 353.411420083,458.099555506 C353.251706759,458.099555506 353.091993436,458.099555506 352.932280113,458.099555506 C351.112348331,458.099555506 349.292416549,456.279623724 349.292416549,454.459691942
C349.292416549,454.459691942 349.292416549,454.459691942 349.292416549,454.459691942 C349.292416549,453.105196223 350.646912268,451.750700504 352.001407987,451.750700504 z"/>
            <path
                style="fill:none"
                id="9A193A22"
                d="M335.209292766,397.364445897 C335.986529863,397.364445897 336.76376696,397.364445897 337.541004057,397.364445897 C338.257814544,397.364445897 338.974625031,398.081256384 338.974625031,398.798066871 C338.974625031,399.653237083 338.974625031,400.508407294 338.974625031,401.363577506
C338.974625031,402.347825642 337.990376895,403.332073778 337.006128759,403.332073778 C336.719923653,403.332073778 336.433718547,403.332073778 336.147513441,403.332073778 C334.421051302,403.332073778 332.694589163,401.605611639 332.694589163,399.8791495
C332.694589163,399.8791495 332.694589163,399.8791495 332.694589163,399.8791495 C332.694589163,398.621797698 333.951940964,397.364445897 335.209292766,397.364445897 z"/>
            <path
                style="fill:none"
                id="C54C5A22"
                d="M329.683187534,348.590542206 C330.067602486,348.590542206 330.452017438,348.590542206 330.83643239,348.590542206 C331.642618233,348.590542206 332.448804076,349.396728049 332.448804076,350.202913892 C332.448804076,351.453767373 332.448804076,352.704620855 332.448804076,353.955474336
C332.448804076,354.97402477 331.430253643,355.992575203 330.411703209,355.992575203 C330.411703209,355.992575203 330.411703209,355.992575203 330.411703209,355.992575203 C328.664637101,355.992575203 326.917570992,354.245509094 326.917570992,352.498442986
C326.917570992,352.117681573 326.917570992,351.73692016 326.917570992,351.356158748 C326.917570992,349.973350477 328.300379263,348.590542206 329.683187534,348.590542206 z"/>
            <path
                style="fill:none"
                id="B0CDDA22"
                d="M322.51427069,373.607341824 C323.565272922,373.607341824 324.616275154,373.607341824 325.667277386,373.607341824 C327.264936783,373.607341824 328.862596181,375.205001221 328.862596181,376.802660618 C328.862596181,377.499045675 328.862596181,378.195430732 328.862596181,378.891815788
C328.862596181,380.876409583 326.878002386,382.861003378 324.89340859,382.861003378 C324.4335384,382.861003378 323.973668209,382.861003378 323.513798018,382.861003378 C320.950500797,382.861003378 318.387203576,380.297706158 318.387203576,377.734408937
C318.387203576,377.734408937 318.387203576,377.734408937 318.387203576,377.734408937 C318.387203576,375.67087538 320.450737133,373.607341824 322.51427069,373.607341824 z"/>
            <path
                style="fill:none"
                id="4B280B22"
                d="M258.96891925,261.629080399 C260.444391429,261.629080399 261.919863608,261.629080399 263.395335787,261.629080399 C264.6938146,261.629080399 265.992293413,262.927559212 265.992293413,264.226038025 C265.992293413,264.591253374 265.992293413,264.956468724 265.992293413,265.321684074
C265.992293413,267.036264964 264.277712522,268.750845855 262.563131632,268.750845855 C261.692898285,268.750845855 260.822664938,268.750845855 259.952431591,268.750845855 C257.926112142,268.750845855 255.899792692,266.724526406 255.899792692,264.698206956
C255.899792692,264.698206956 255.899792692,264.698206956 255.899792692,264.698206956 C255.899792692,263.163643678 257.434355971,261.629080399 258.96891925,261.629080399 z"/>
            <path
                style="fill:none"
                id="14AE3B22"
                d="M276.431938121,278.412153312 C276.808398185,278.412153312 277.18485825,278.412153312 277.561318315,278.412153312 C278.382364244,278.412153312 279.203410174,279.233199241 279.203410174,280.05424517 C279.203410174,281.328124404 279.203410174,282.602003637 279.203410174,283.875882871
C279.203410174,284.907025002 278.172268043,285.938167132 277.141125913,285.938167132 C277.141125913,285.938167132 277.141125913,285.938167132 277.141125913,285.938167132 C275.40079599,285.938167132 273.660466068,284.197837209 273.660466068,282.457507287
C273.660466068,282.032879979 273.660466068,281.608252672 273.660466068,281.183625365 C273.660466068,279.797889338 275.046202094,278.412153312 276.431938121,278.412153312 z"/>
            <path
                style="fill:none"
                id="FF477B22"
                d="M144.198573152,168.30353325 C145.220028775,168.30353325 146.241484399,168.30353325 147.262940023,168.30353325 C148.582709063,168.30353325 149.902478102,169.62330229 149.902478102,170.94307133 C149.902478102,171.692175419 149.902478102,172.441279508 149.902478102,173.190383597
C149.902478102,174.876126866 148.216734834,176.561870134 146.530991566,176.561870134 C146.088718239,176.561870134 145.646444912,176.561870134 145.204171585,176.561870134 C142.888187756,176.561870134 140.572203927,174.245886305 140.572203927,171.929902476
C140.572203927,171.929902476 140.572203927,171.929902476 140.572203927,171.929902476 C140.572203927,170.116717863 142.385388539,168.30353325 144.198573152,168.30353325 z"/>
            <path
                style="fill:none"
                id="8E4BBB22"
                d="M173.619599983,180.320923014 C175.056644229,180.320923014 176.493688475,180.320923014 177.930732722,180.320923014 C178.830285277,180.320923014 179.729837833,181.220475569 179.729837833,182.120028125 C179.729837833,182.662341662 179.729837833,183.204655198 179.729837833,183.746968735
C179.729837833,185.014706425 178.462100143,186.282444115 177.194362453,186.282444115 C176.340361411,186.282444115 175.486360369,186.282444115 174.632359327,186.282444115 C172.888789216,186.282444115 171.145219104,184.538874004 171.145219104,182.795303892
C171.145219104,182.795303892 171.145219104,182.795303892 171.145219104,182.795303892 C171.145219104,181.558113453 172.382409544,180.320923014 173.619599983,180.320923014 z"/>
            <path
                style="fill:none"
                id="9A60FB22"
                d="M209.82853252,230.275038914 C210.827068224,230.275038914 211.825603929,230.275038914 212.824139634,230.275038914 C214.155840965,230.275038914 215.487542297,231.606740245 215.487542297,232.938441576 C215.487542297,233.019926255 215.487542297,233.101410933 215.487542297,233.182895612
C215.487542297,234.876895437 213.793542472,236.570895262 212.099542647,236.570895262 C211.593828604,236.570895262 211.08811456,236.570895262 210.582400517,236.570895262 C208.819969431,236.570895262 207.057538344,234.808464175 207.057538344,233.046033089
C207.057538344,233.046033089 207.057538344,233.046033089 207.057538344,233.046033089 C207.057538344,231.660536001 208.443035432,230.275038914 209.82853252,230.275038914 z"/>
            <path
                style="fill:none"
                id="7E4E1C22"
                d="M154.672785293,205.29813107 C156.297151419,205.29813107 157.921517546,205.29813107 159.545883673,205.29813107 C160.645142164,205.29813107 161.744400656,206.397389562 161.744400656,207.496648054 C161.744400656,207.96030458 161.744400656,208.423961107 161.744400656,208.887617633
C161.744400656,210.407794415 160.224223875,211.927971196 158.704047093,211.927971196 C157.715410539,211.927971196 156.726773985,211.927971196 155.738137431,211.927971196 C153.814339365,211.927971196 151.890541299,210.00417313 151.890541299,208.080375065
C151.890541299,208.080375065 151.890541299,208.080375065 151.890541299,208.080375065 C151.890541299,206.689253068 153.281663296,205.29813107 154.672785293,205.29813107 z"/>
<ellipse
       style="fill:none"
       id="A9637036"
       cx="362.492218018"
       cy="314.069581399"
       rx="5.188537597656"
       ry="3.190917272542"/>

            <ellipse
                style="fill:none"
                id="8BF32E22"
                cx="140.027802402"
                cy="134.559060649"
                rx="5.316130998709"
                ry="3.190917272542"/>
         </g>
         <ellipse
             style="fill:none"
             id="A9637032"
             cx="262.492218018"
             cy="314.069581399"
             rx="5.188537597656"
             ry="3.190917272542"/>
             <ellipse xmlns="http://www.w3.org/2000/svg" style="fill:none" id="A7637036" cx="362.492218018" cy="344.069581399" rx="5.188537597656" ry="3.190917272542"/>
              <ellipse xmlns="http://www.w3.org/2000/svg" style="fill:none" id="8BF32E52" cx="120.027802402" cy="114.559060649" rx="5.316130998709" ry="3.190917272542"/>
      <ellipse xmlns="http://www.w3.org/2000/svg" style="fill:none" id="8BF35E52" cx="300.027802402" cy="424.559060649" rx="5.316130998709" ry="3.190917272542"/>
       <ellipse xmlns="http://www.w3.org/2000/svg" style="fill:none" id="85F32E52" cx="240.027802402" cy="384.559060649" rx="5.316130998709" ry="3.190917272542"/>
     
     
      </g>

   </g>
   
</svg>
